`                          888      888 888               888 888 
                           888      888 888               888 888 
                           888      888 888               888 888 
              .d88b.   .d88888  .d88888 88888b.   8888b.  888 888 
             d88""88b d88" 888 d88" 888 888 "88b     "88b 888 888 
             888  888 888  888 888  888 888  888 .d888888 888 888 
             Y88..88P Y88b 888 Y88b 888 888 d88P 888  888 888 888 
              "Y88P"   "Y88888  "Y88888 88888P"  "Y888888 888 888 
                                       -links.com 

Parasomnia is an independent horror film directed by William Malone and released in the United States in November 2008.The filming was funded by Malone himself, and its release was delayed due to difficulties securing distribution.


Screen Shots
 
http://i724.photobucket.com/albums/ww246/oddball-links/Parasmnia/5.jpg
 
http://i724.photobucket.com/albums/ww246/oddball-links/Parasmnia/4.jpg
 
http://i724.photobucket.com/albums/ww246/oddball-links/Parasmnia/3.jpg
 
http://i724.photobucket.com/albums/ww246/oddball-links/Parasmnia/2.jpg
 
http://i724.photobucket.com/albums/ww246/oddball-links/Parasmnia/1.jpg



General
Complete name                    : Parasomnia 
Format                           : AVI
Format/Info                      : Audio Video Interleave
File size                        : 936 MiB
Duration                         : 1h 38mn
Overall bit rate                 : 1 330 Kbps

Video
Format                           : MPEG-4 Visual
Format profile                   : Streaming Video@L1
Format settings, BVOP            : Yes
Format settings, QPel            : No
Format settings, GMC             : No warppoints
Format settings, Matrix          : Default
Muxing mode                      : Packed bitstream
Codec ID                         : XVID
Codec ID/Hint                    : XviD
Duration                         : 1h 38mn
Bit rate                         : 1 126 Kbps
Width                            : 1 024 pixels
Height                           : 582 pixels
Display aspect ratio             : 16/9
Frame rate                       : 29.970 fps
Resolution                       : 24 bits
Colorimetry                      : 4:2:0
Scan type                        : Progressive
Bits/(Pixel*Frame)               : 0.063
Stream size                      : 792 MiB (85%)
Writing library                  : XviD 1.1.0 (UTC 2005-11-22)

Audio
Format                           : MPEG Audio
Format version                   : Version 1
Format profile                   : Layer 3
Codec ID                         : 55
Codec ID/Hint                    : MP3
Duration                         : 1h 38mn
Bit rate mode                    : Constant
Bit rate                         : 192 Kbps
Channel(s)                       : 2 channels
Sampling rate                    : 44.1 KHz
Resolution                       : 16 bits
Video delay                      : 26ms
Stream size                      : 135 MiB (14%)
Alignment                        : Split accross interleaves
Interleave, duration             : 33 ms (1.00 video frame)
Title                            : Audio Stream
Writing library                  : LAME3.92



For more oddball torrents  http://thepiratebay.org/user/oddball-links `                                                                                                            Please seed after downloading `                                                                                            :::===  :::===== :::===== :::====       :::= === :::====  :::====
        :::     :::      :::      :::  ===      :::===== :::  === :::====
         =====  ======   ======   ===  ===      ======== ===  ===   ===  
            === ===      ===      ===  ===      === ==== ===  ===   ===  
        ======  ======== ======== =======       ===  ===  ======    ===  
                                                                         
                  :::=====  :::====  :::===== :::===== :::==== 
                  :::       :::  === :::      :::      :::  ===
                  === ===== =======  ======   ======   ===  ===
                  ===   === === ===  ===      ===      ===  ===
                   =======  ===  === ======== ======== =======